# xmcd
#
# Track frame offsets: 
#        150
#        20255
#        47430
#        66575
#        86582
#        124995
#        140310
#        153272
#        169997
#        183840
#        196625
#        207645
#        220467
#        257200
#        278270
#        307065
#
# Disc length: 4343 seconds
#
# Revision: 4
# Processed by: cddbd v1.5.2PL0 Copyright (c) Steve Scherf et al.
# Submitted via: ExactAudioCopy v1.3
#
DISCID=e710f510
DTITLE=Kitaro - Best 16 Hits
DYEAR=1999
DGENRE=New Age
TTITLE0=Shichu No Michi
TTITLE1=Asa No Inori
TTITLE2=Tenzan
TTITLE3=Ailkroad Genso
TTITLE4=Shinpi Naru Sunano Mai
TTITLE5=Hiten
TTITLE6=Toki No Nagare
TTITLE7=Towa No Michi
TTITLE8=Hikari To Kage
TTITLE9=Nishi Ni Mukatte
TTITLE10=Morolism
TTITLE11=Aratanaru Taibiji
TTITLE12=Cosmic Energy
TTITLE13=Mugen Soi
TTITLE14=Chi
TTITLE15=Ru
EXTD=YEAR: 1999
EXTT0=
EXTT1=
EXTT2=
EXTT3=
EXTT4=
EXTT5=
EXTT6=
EXTT7=
EXTT8=
EXTT9=
EXTT10=
EXTT11=
EXTT12=
EXTT13=
EXTT14=
EXTT15=
PLAYORDER=
